M48
; DRILL file KiCad 10.0.6 date 2026-10-07T18:36:28
; FORMAT={-:-/ absolute / metric / decimal}
; #@! TF.CreationDate,2026-10-07T18:36:28+01:00
; #@! TF.GenerationSoftware,Kicad,Pcbnew,10.0.6
; #@! TF.FileFunction,Plated,1,2,PTH
FMAT,2
METRIC
; #@! TA.AperFunction,Plated,PTH,ViaDrill
T1C0.300
; #@! TA.AperFunction,Plated,PTH,ComponentDrill
T2C0.600
; #@! TA.AperFunction,Plated,PTH,ComponentDrill
T3C0.800
; #@! TA.AperFunction,Plated,PTH,ComponentDrill
T4C1.000
%
G90
G05
T1
X27.0Y-54.5
X28.5Y-61.5
X30.5Y-37.5
X30.5Y-52.0
X35.0Y-54.5
X37.5Y-60.0
X42.0Y-52.0
X44.6Y-61.85
X45.0Y-64.0
T3
X31.25Y-50.0
X33.75Y-50.0
X38.75Y-50.0
X41.25Y-50.0
T4
X45.5Y-34.96
X45.5Y-37.5
X46.5Y-43.92
X46.5Y-46.46
X46.5Y-49.0
X46.5Y-51.54
X46.5Y-54.08
X46.5Y-56.62
X46.5Y-59.16
X46.5Y-61.7
T2
G00X26.68Y-62.345
M15
G01X26.68Y-63.445
M16
G05
G00X26.68Y-66.675
M15
G01X26.68Y-67.475
M16
G05
G00X35.32Y-62.345
M15
G01X35.32Y-63.445
M16
G05
G00X35.32Y-66.675
M15
G01X35.32Y-67.475
M16
G05
M30
